<?xml version="1.0"?>
<svg xmlns="http://www.w3.org/2000/svg" width="50" height="50" viewBox="0 0 50 50">
    <path d="M 13 0 C 5.832 0 0 5.832 0 13 L 0 37 C 0 44.168 5.832 50 13 50 L 37 50 C 44.168 50 50 44.168 50 37 L 50 13 C 50 5.832 44.168 0 37 0 L 13 0 z M 9.3125 18.6875 L 10.90625 18.6875 L 10.90625 26.3125 L 15.09375 22.1875 L 17.1875 22.1875 L 13.5 25.59375 L 17.5 31.5 L 15.59375 31.5 L 12.40625 26.59375 L 10.90625 28 L 10.90625 31.5 L 9.3125 31.5 L 9.3125 18.6875 z M 38.8125 18.6875 L 40.3125 18.6875 L 40.3125 31.59375 L 38.8125 31.59375 L 38.8125 18.6875 z M 32.5 21.90625 C 32.9 21.90625 33.3125 21.9 33.8125 22 C 34.2125 22.1 34.60525 22.20625 34.90625 22.40625 C 35.20625 22.60625 35.4875 22.7875 35.6875 23.1875 C 35.8875 23.4875 36 24 36 24.5 L 36 29.3125 C 36 29.7125 35.99375 29.89475 36.09375 30.09375 C 36.09375 30.29375 36.3 30.40625 36.5 30.40625 C 36.6 30.40625 36.8 30.4135 37 30.3125 L 37 31.5 L 36.90625 31.5 C 36.60625 31.7 36.3125 31.6875 35.8125 31.6875 C 35.4135 31.6875 35.10525 31.60525 34.90625 31.40625 C 34.70625 31.20625 34.5 30.8125 34.5 30.3125 C 34.1 30.8125 33.6 31.20525 33 31.40625 C 32.4 31.60525 31.7875 31.6875 31.1875 31.6875 C 30.7875 31.6875 30.4 31.69475 30 31.59375 C 29.6 31.49375 29.3 31.39475 29 31.09375 C 28.7 30.79375 28.5125 30.6125 28.3125 30.3125 C 28.1125 30.0125 28.09375 29.59375 28.09375 29.09375 C 28.09375 28.59375 28.20625 28.1125 28.40625 27.8125 C 28.60425 27.5135 28.79375 27.2 29.09375 27 C 29.39475 26.8 29.69475 26.6 30.09375 26.5 C 30.49375 26.4 30.9135 26.2875 31.3125 26.1875 C 31.7125 26.0865 32.1 26.099 32.5 26 C 32.9 25.901 33.2 25.9125 33.5 25.8125 C 33.8 25.7125 33.9875 25.6 34.1875 25.5 C 34.3875 25.4 34.5 25.1125 34.5 24.8125 C 34.5 24.5125 34.4125 24.2 34.3125 24 C 34.2125 23.8 34.0125 23.6 33.8125 23.5 C 33.6125 23.4 33.39475 23.3125 33.09375 23.3125 C 32.89475 23.3125 32.60525 23.1875 32.40625 23.1875 C 31.80525 23.1875 31.2135 23.29375 30.8125 23.59375 C 30.3125 23.99375 30 24.39375 30 25.09375 L 28.5 25.09375 C 28.5 24.49375 28.60625 23.99375 28.90625 23.59375 C 29.20625 23.19375 29.4135 22.89375 29.8125 22.59375 C 30.2125 22.39375 30.6 22.19375 31 22.09375 C 31.4 21.99375 32 21.90625 32.5 21.90625 z M 22.59375 22 C 23.09375 22 23.59375 22.0875 24.09375 22.1875 C 24.59375 22.2875 25.0125 22.5125 25.3125 22.8125 C 25.7125 23.1125 25.8885 23.4125 26.1875 23.8125 C 26.3875 24.2125 26.59375 24.6875 26.59375 25.1875 L 25 25.1875 C 24.8 24.5875 24.4875 24.2125 24.1875 23.8125 C 23.7875 23.5125 23.2875 23.3125 22.6875 23.3125 C 22.0875 23.3125 21.7125 23.39375 21.3125 23.59375 C 20.9125 23.79375 20.60625 24.10625 20.40625 24.40625 C 20.20625 24.70625 20.00625 25.09375 19.90625 25.59375 C 19.80625 25.99375 19.8125 26.5 19.8125 27 C 19.8125 27.4 19.9 27.9125 20 28.3125 C 20.1 28.7125 20.3 29.10525 20.5 29.40625 C 20.7 29.70625 21.0125 29.9875 21.3125 30.1875 C 21.6125 30.3875 22.1 30.5 22.5 30.5 C 23.3 30.5 23.8125 30.30625 24.3125 29.90625 C 24.8125 29.50625 24.99375 28.8875 25.09375 28.1875 L 26.6875 28.1875 C 26.4875 29.3875 26.10625 30.20625 25.40625 30.90625 C 24.70625 31.50625 23.79375 31.8125 22.59375 31.8125 C 21.89375 31.8125 21.2875 31.7 20.6875 31.5 C 20.1875 31.3 19.7125 30.9 19.3125 30.5 C 18.9125 30.1 18.7 29.6 18.5 29 C 18.3 28.4 18.1875 27.79375 18.1875 27.09375 C 18.1875 26.39475 18.3 25.79375 18.5 25.09375 C 18.7 24.39375 19.0125 24 19.3125 23.5 C 19.7125 23.1 20.0875 22.70625 20.6875 22.40625 C 21.2875 22.10625 21.89375 22 22.59375 22 z M 34.40625 26.6875 C 34.20625 26.7875 33.99375 26.9 33.59375 27 C 33.29375 27.1 32.99375 27.0875 32.59375 27.1875 C 32.29375 27.1875 31.89475 27.3125 31.59375 27.3125 C 31.29375 27.4125 30.8875 27.39375 30.6875 27.59375 C 30.3875 27.69375 30.2 27.89375 30 28.09375 C 29.8 28.29375 29.6875 28.6 29.6875 29 C 29.6875 29.3 29.80625 29.49375 29.90625 29.59375 C 30.00625 29.69375 30.1125 29.9 30.3125 30 C 30.5125 30.1 30.70525 30.1875 30.90625 30.1875 C 31.10525 30.1875 31.29375 30.3125 31.59375 30.3125 C 32.09375 30.3125 32.50525 30.19375 32.90625 30.09375 C 33.30525 29.99375 33.6125 29.79375 33.8125 29.59375 C 34.0125 29.39375 34.2125 29.20625 34.3125 28.90625 C 34.4135 28.60525 34.5 28.3875 34.5 28.1875 L 34.5 26.6875 L 34.40625 26.6875 z"/>
</svg>
